<?xml version="1.0" encoding="UTF-8" standalone="no"?>
<!-- Created with Inkscape (http://www.inkscape.org/) -->

<svg
   xmlns:dc="http://purl.org/dc/elements/1.1/"
   xmlns:cc="http://creativecommons.org/ns#"
   xmlns:rdf="http://www.w3.org/1999/02/22-rdf-syntax-ns#"
   xmlns:svg="http://www.w3.org/2000/svg"
   xmlns="http://www.w3.org/2000/svg"
   xmlns:sodipodi="http://sodipodi.sourceforge.net/DTD/sodipodi-0.dtd"
   xmlns:inkscape="http://www.inkscape.org/namespaces/inkscape"
   width="48"
   height="48"
   id="svg5345"
   version="1.1"
   inkscape:version="0.48.2 r9819"
   sodipodi:docname="ic_action_library.svg"
   inkscape:export-filename="/Users/Alex/Dropbox/AndroidMac/TunesRemote/res/drawable-hdpi/ic_action_library.png"
   inkscape:export-xdpi="67.5"
   inkscape:export-ydpi="67.5">
  <defs
     id="defs5347" />
  <sodipodi:namedview
     id="base"
     pagecolor="#ffffff"
     bordercolor="#666666"
     borderopacity="1.0"
     inkscape:pageopacity="0.0"
     inkscape:pageshadow="2"
     inkscape:zoom="15.770833"
     inkscape:cx="24.000001"
     inkscape:cy="23.778516"
     inkscape:document-units="px"
     inkscape:current-layer="layer1"
     showgrid="false"
     inkscape:window-width="1920"
     inkscape:window-height="945"
     inkscape:window-x="0"
     inkscape:window-y="0"
     inkscape:window-maximized="1"
     showguides="false" />
  <metadata
     id="metadata5350">
    <rdf:RDF>
      <cc:Work
         rdf:about="">
        <dc:format>image/svg+xml</dc:format>
        <dc:type
           rdf:resource="http://purl.org/dc/dcmitype/StillImage" />
        <dc:title></dc:title>
      </cc:Work>
    </rdf:RDF>
  </metadata>
  <g
     inkscape:label="Layer 1"
     inkscape:groupmode="layer"
     id="layer1"
     transform="translate(0,-1004.3622)">
    <g
       id="g3975"
       transform="translate(-1,1)"
       style="fill:#ffffff">
      <path
         id="rect2982"
         d="m 11,1019.3622 0,24 24,0 0,-24 -24,0 z m 12,2 c 5.522847,0 10,4.4772 10,10 0,5.5228 -4.477153,10 -10,10 -5.522847,0 -10,-4.4772 -10,-10 0,-5.5228 4.477153,-10 10,-10 z"
         style="opacity:0.80000000000000004;fill:#ffffff;fill-opacity:1;stroke:none"
         inkscape:connector-curvature="0" />
      <rect
         y="1019.3622"
         x="7"
         height="24"
         width="2"
         id="rect2984"
         style="opacity:0.80000000000000004;fill:#ffffff;fill-opacity:1;stroke:none" />
      <path
         transform="matrix(1.5770833,0,0,1.3713769,-12.8,998.66654)"
         d="m 23.968296,23.84148 c 0,0.805446 -0.567776,1.458389 -1.268164,1.458389 -0.700387,0 -1.268163,-0.652943 -1.268163,-1.458389 0,-0.805445 0.567776,-1.458388 1.268163,-1.458388 0.700388,0 1.268164,0.652943 1.268164,1.458388 z"
         sodipodi:ry="1.4583883"
         sodipodi:rx="1.2681638"
         sodipodi:cy="23.84148"
         sodipodi:cx="22.700132"
         id="path2988"
         style="opacity:0.80000000000000004;fill:#ffffff;fill-opacity:1;stroke:none"
         sodipodi:type="arc" />
      <path
         inkscape:connector-curvature="0"
         id="rect3009"
         d="m 39,1039.3622 0,-24 -24,0 0,1.9692 22,0 0,22.0308 2,0 z"
         style="opacity:0.80000000000000004;fill:#ffffff;fill-opacity:1;stroke:none" />
      <path
         style="opacity:0.80000000000000004;fill:#ffffff;fill-opacity:1;stroke:none"
         d="m 43,1035.3622 0,-24 -24,0 0,1.9692 22,0 0,22.0308 2,0 z"
         id="path3015"
         inkscape:connector-curvature="0" />
    </g>
  </g>
</svg>
