<?xml version="1.0" encoding="UTF-8" standalone="no"?>
<!-- Created with Inkscape (http://www.inkscape.org/) -->

<svg
   xmlns:dc="http://purl.org/dc/elements/1.1/"
   xmlns:cc="http://creativecommons.org/ns#"
   xmlns:rdf="http://www.w3.org/1999/02/22-rdf-syntax-ns#"
   xmlns:svg="http://www.w3.org/2000/svg"
   xmlns="http://www.w3.org/2000/svg"
   xmlns:sodipodi="http://sodipodi.sourceforge.net/DTD/sodipodi-0.dtd"
   xmlns:inkscape="http://www.inkscape.org/namespaces/inkscape"
   width="64"
   height="64"
   id="svg5345"
   version="1.1"
   inkscape:version="0.48.2 r9819"
   sodipodi:docname="ic_action_now_playing.svg"
   inkscape:export-filename="/Users/Alex/Dropbox/AndroidMac/TunesRemote/res/drawable-ldpi/ic_action_playing.png"
   inkscape:export-xdpi="33.75"
   inkscape:export-ydpi="33.75">
  <defs
     id="defs5347" />
  <sodipodi:namedview
     id="base"
     pagecolor="#ffffff"
     bordercolor="#666666"
     borderopacity="1.0"
     inkscape:pageopacity="0.0"
     inkscape:pageshadow="2"
     inkscape:zoom="11.828125"
     inkscape:cx="32"
     inkscape:cy="32"
     inkscape:document-units="px"
     inkscape:current-layer="layer1"
     showgrid="false"
     inkscape:window-width="1920"
     inkscape:window-height="945"
     inkscape:window-x="0"
     inkscape:window-y="0"
     inkscape:window-maximized="1" />
  <metadata
     id="metadata5350">
    <rdf:RDF>
      <cc:Work
         rdf:about="">
        <dc:format>image/svg+xml</dc:format>
        <dc:type
           rdf:resource="http://purl.org/dc/dcmitype/StillImage" />
        <dc:title></dc:title>
      </cc:Work>
    </rdf:RDF>
  </metadata>
  <g
     inkscape:label="Layer 1"
     inkscape:groupmode="layer"
     id="layer1"
     transform="translate(0,-988.36218)">
    <rect
       style="fill:#4d4d4d;fill-opacity:1;stroke:none"
       id="rect4288"
       width="48"
       height="48"
       x="8"
       y="996.36218" />
    <g
       id="g4322"
       style="opacity:0.8;fill:#ffffff"
       transform="translate(2,0)">
      <path
         id="path4247"
         transform="translate(0,988.36218)"
         d="m 44,12 -24,6.53125 0,4.0625 0,17.0625 c -0.838755,-0.2885 -1.866213,-0.3073 -3,0 -2.761424,0.7512 -5,3.16305 -5,5.40625 0,2.243 2.238576,3.47005 5,2.71875 2.761424,-0.7512 5,-3.1945 5,-5.4375 L 22,22.0625 42,16.59375 42,33.6875 c -0.838755,-0.2885 -1.866213,-0.33855 -3,-0.03125 -0.26834,0.07302 -0.524358,0.178289 -0.78125,0.28125 1.898873,1.089255 3.78581,2.196819 5.6875,3.28125 C 43.972854,36.936246 44,36.655375 44,36.375 L 44,16.0625 44,12 z"
         style="fill:#ffffff;fill-opacity:1;stroke:none"
         inkscape:connector-curvature="0" />
      <path
         transform="matrix(1.2366904,0,0,1.2048809,-2.0839274,983.42072)"
         inkscape:transform-center-x="-2.6666755"
         d="m 40.498356,38.129459 -6.468879,3.734809 -6.468879,3.734809 1e-6,-7.469618 -1e-6,-7.469617 6.468879,3.734809 z"
         inkscape:randomized="0"
         inkscape:rounded="0"
         inkscape:flatsided="false"
         sodipodi:arg2="1.0471976"
         sodipodi:arg1="0"
         sodipodi:r2="4.3125854"
         sodipodi:r1="8.6251717"
         sodipodi:cy="38.129459"
         sodipodi:cx="31.873184"
         sodipodi:sides="3"
         id="path4298"
         style="fill:#ffffff;fill-opacity:1;stroke:none"
         sodipodi:type="star" />
    </g>
  </g>
</svg>
