<?xml version="1.0" encoding="UTF-8" standalone="no"?>
<!-- Created with Inkscape (http://www.inkscape.org/) -->

<svg
   xmlns:dc="http://purl.org/dc/elements/1.1/"
   xmlns:cc="http://creativecommons.org/ns#"
   xmlns:rdf="http://www.w3.org/1999/02/22-rdf-syntax-ns#"
   xmlns:svg="http://www.w3.org/2000/svg"
   xmlns="http://www.w3.org/2000/svg"
   xmlns:sodipodi="http://sodipodi.sourceforge.net/DTD/sodipodi-0.dtd"
   xmlns:inkscape="http://www.inkscape.org/namespaces/inkscape"
   width="96"
   height="96"
   id="svg5345"
   version="1.1"
   inkscape:version="0.48.2 r9819"
   sodipodi:docname="ic_tunes_next_pressed.svg"
   inkscape:export-filename="/Users/Alex/Dropbox/AndroidMac/TunesRemote/res/drawable-xhdpi/ic_tunes_next_pressed.png"
   inkscape:export-xdpi="90"
   inkscape:export-ydpi="90">
  <defs
     id="defs5347" />
  <sodipodi:namedview
     id="base"
     pagecolor="#ffffff"
     bordercolor="#666666"
     borderopacity="1.0"
     inkscape:pageopacity="0.0"
     inkscape:pageshadow="2"
     inkscape:zoom="7.8854167"
     inkscape:cx="25.426684"
     inkscape:cy="47.209934"
     inkscape:document-units="px"
     inkscape:current-layer="layer1"
     showgrid="false"
     inkscape:window-width="1920"
     inkscape:window-height="945"
     inkscape:window-x="0"
     inkscape:window-y="0"
     inkscape:window-maximized="1"
     inkscape:snap-global="false"
     showguides="false">
    <inkscape:grid
       type="xygrid"
       id="grid3754"
       empspacing="5"
       visible="true"
       enabled="true"
       snapvisiblegridlinesonly="true" />
  </sodipodi:namedview>
  <metadata
     id="metadata5350">
    <rdf:RDF>
      <cc:Work
         rdf:about="">
        <dc:format>image/svg+xml</dc:format>
        <dc:type
           rdf:resource="http://purl.org/dc/dcmitype/StillImage" />
        <dc:title></dc:title>
      </cc:Work>
    </rdf:RDF>
  </metadata>
  <g
     inkscape:label="Layer 1"
     inkscape:groupmode="layer"
     id="layer1"
     transform="translate(0,-956.36218)">
    <path
       style="fill:#33b5e5;fill-opacity:1;stroke:none;opacity:0.80000000000000004"
       d="m 22,977.36217 0,27.00003 0,27 24,-13.5 20,-11.25 0,24.75 8,0 0,-54.00003 -8,0 0,24.75003 -20,-11.25003 -24,-13.5 z"
       id="path3756"
       inkscape:connector-curvature="0" />
    <path
       style="opacity:0.5;fill:#33b5e5;fill-opacity:1;stroke:none"
       d="m 18,1038.1875 c 14.658641,-8.2642 29.322446,-16.5194 44,-24.75 0,7.3021 0,14.6042 0,21.9063 6.720488,0 11.821217,-0.047 16.03125,-0.047 C 78.143734,1015.637 78,993.18222 78,973.40625 c -5.375662,0 -15.965117,0.0981 -15.965117,0.0981 0,0 0.152617,15.74456 0.152617,21.87062 C 47.447264,987.12393 32.727173,978.83687 18,970.5625 c 0,22.54167 0,45.0833 0,67.625 z"
       id="path4733"
       inkscape:connector-curvature="0"
       sodipodi:nodetypes="ccccccccc" />
  </g>
</svg>
