<?xml version="1.0" encoding="UTF-8" standalone="no"?>
<!-- Created with Inkscape (http://www.inkscape.org/) -->

<svg
   xmlns:dc="http://purl.org/dc/elements/1.1/"
   xmlns:cc="http://creativecommons.org/ns#"
   xmlns:rdf="http://www.w3.org/1999/02/22-rdf-syntax-ns#"
   xmlns:svg="http://www.w3.org/2000/svg"
   xmlns="http://www.w3.org/2000/svg"
   xmlns:sodipodi="http://sodipodi.sourceforge.net/DTD/sodipodi-0.dtd"
   xmlns:inkscape="http://www.inkscape.org/namespaces/inkscape"
   width="64"
   height="64"
   id="svg5345"
   version="1.1"
   inkscape:version="0.48.2 r9819"
   sodipodi:docname="ic_action_library_xhdpi_2.svg"
   inkscape:export-filename="/Users/Alex/Dropbox/AndroidMac/TunesRemote/res/drawable-xhdpi/ic_action_library_2.png"
   inkscape:export-xdpi="90"
   inkscape:export-ydpi="90">
  <defs
     id="defs5347" />
  <sodipodi:namedview
     id="base"
     pagecolor="#ffffff"
     bordercolor="#666666"
     borderopacity="1.0"
     inkscape:pageopacity="0.0"
     inkscape:pageshadow="2"
     inkscape:zoom="11.828125"
     inkscape:cx="21.389696"
     inkscape:cy="32"
     inkscape:document-units="px"
     inkscape:current-layer="layer1"
     showgrid="false"
     inkscape:window-width="1920"
     inkscape:window-height="945"
     inkscape:window-x="0"
     inkscape:window-y="0"
     inkscape:window-maximized="1" />
  <metadata
     id="metadata5350">
    <rdf:RDF>
      <cc:Work
         rdf:about="">
        <dc:format>image/svg+xml</dc:format>
        <dc:type
           rdf:resource="http://purl.org/dc/dcmitype/StillImage" />
        <dc:title></dc:title>
      </cc:Work>
    </rdf:RDF>
  </metadata>
  <g
     inkscape:label="Layer 1"
     inkscape:groupmode="layer"
     id="layer1"
     transform="translate(0,-988.3622)">
    <g
       id="g4222"
       style="opacity:0.8;fill:#ffffff"
       transform="translate(-2,2)">
      <path
         id="rect2982"
         d="m 14,1008.3622 0,32 32,0 0,-32 -32,0 z m 16,2.6667 c 7.363796,0 13.333333,5.9696 13.333333,13.3333 0,7.3637 -5.969537,13.3333 -13.333333,13.3333 -7.363796,0 -13.333333,-5.9696 -13.333333,-13.3333 0,-7.3637 5.969537,-13.3333 13.333333,-13.3333 z"
         style="fill:#ffffff;fill-opacity:1;stroke:none"
         inkscape:connector-curvature="0" />
      <rect
         y="1008.3622"
         x="10"
         height="32"
         width="2"
         id="rect2984"
         style="fill:#ffffff;fill-opacity:1;stroke:none" />
      <path
         transform="matrix(2.365625,0,0,2.0570654,-23.700001,975.31872)"
         d="m 23.968296,23.84148 c 0,0.805446 -0.567776,1.458389 -1.268164,1.458389 -0.700387,0 -1.268163,-0.652943 -1.268163,-1.458389 0,-0.805445 0.567776,-1.458388 1.268163,-1.458388 0.700388,0 1.268164,0.652943 1.268164,1.458388 z"
         sodipodi:ry="1.4583883"
         sodipodi:rx="1.2681638"
         sodipodi:cy="23.84148"
         sodipodi:cx="22.700132"
         id="path2988"
         style="fill:#ffffff;fill-opacity:1;stroke:none"
         sodipodi:type="arc" />
      <path
         id="path4000"
         d="m 32.84375,1013.7372 -1.5625,5.8125 c 1.141091,0.3057 2.147855,0.999 2.8125,1.9375 L 39,1018.0497 c -1.483343,-2.1184 -3.658241,-3.6432 -6.15625,-4.3125 z"
         style="fill:#ffffff;fill-opacity:1;stroke:none"
         inkscape:connector-curvature="0" />
      <path
         style="fill:#ffffff;fill-opacity:1;stroke:none"
         d="m 52,1034.3622 0,-32 -36,0 0,4 32,0 0,28 4,0 z"
         id="path4147"
         inkscape:connector-curvature="0" />
      <path
         inkscape:connector-curvature="0"
         id="path4206"
         d="m 58,1028.3622 0,-32 -36,0 0,4 32,0 0,28 4,0 z"
         style="fill:#ffffff;fill-opacity:1;stroke:none" />
    </g>
  </g>
</svg>
