<?xml version="1.0" encoding="UTF-8" standalone="no"?>
<!-- Created with Inkscape (http://www.inkscape.org/) -->

<svg
   xmlns:dc="http://purl.org/dc/elements/1.1/"
   xmlns:cc="http://creativecommons.org/ns#"
   xmlns:rdf="http://www.w3.org/1999/02/22-rdf-syntax-ns#"
   xmlns:svg="http://www.w3.org/2000/svg"
   xmlns="http://www.w3.org/2000/svg"
   xmlns:sodipodi="http://sodipodi.sourceforge.net/DTD/sodipodi-0.dtd"
   xmlns:inkscape="http://www.inkscape.org/namespaces/inkscape"
   width="64"
   height="64"
   id="svg5345"
   version="1.1"
   inkscape:version="0.48.2 r9819"
   sodipodi:docname="New document 9">
  <defs
     id="defs5347" />
  <sodipodi:namedview
     id="base"
     pagecolor="#ffffff"
     bordercolor="#666666"
     borderopacity="1.0"
     inkscape:pageopacity="0.0"
     inkscape:pageshadow="2"
     inkscape:zoom="11.828125"
     inkscape:cx="21.389696"
     inkscape:cy="32"
     inkscape:document-units="px"
     inkscape:current-layer="layer1"
     showgrid="false"
     inkscape:window-width="1920"
     inkscape:window-height="945"
     inkscape:window-x="0"
     inkscape:window-y="0"
     inkscape:window-maximized="1" />
  <metadata
     id="metadata5350">
    <rdf:RDF>
      <cc:Work
         rdf:about="">
        <dc:format>image/svg+xml</dc:format>
        <dc:type
           rdf:resource="http://purl.org/dc/dcmitype/StillImage" />
        <dc:title></dc:title>
      </cc:Work>
    </rdf:RDF>
  </metadata>
  <g
     inkscape:label="Layer 1"
     inkscape:groupmode="layer"
     id="layer1"
     transform="translate(0,-988.36218)">
    <path
       style="fill:#ffffff;fill-opacity:1;stroke:none;opacity:0.8"
       d="m 22,1008.8943 0,4.0614 0,17.0707 c -0.838755,-0.2885 -1.866213,-0.3173 -3,-0.01 -2.761424,0.7512 -5,3.1786 -5,5.4218 0,2.243 2.238576,3.4523 5,2.701 2.761424,-0.7512 5,-3.1787 5,-5.4217 l 0,-20.3072 20,-5.4413 0,17.0708 c -0.838755,-0.2885 -1.866213,-0.3173 -3,-0.01 -2.761424,0.7514 -5,3.1787 -5,5.4218 0,2.243 2.238576,3.4524 5,2.7011 2.761424,-0.7513 5,-3.1787 5,-5.4217 l 0,-20.3072 0,-4.0615 -24,6.5296 z"
       id="path4247"
       inkscape:connector-curvature="0" />
  </g>
</svg>
