<?xml version="1.0" encoding="UTF-8" standalone="no"?>
<!-- Created with Inkscape (http://www.inkscape.org/) -->

<svg
   xmlns:dc="http://purl.org/dc/elements/1.1/"
   xmlns:cc="http://creativecommons.org/ns#"
   xmlns:rdf="http://www.w3.org/1999/02/22-rdf-syntax-ns#"
   xmlns:svg="http://www.w3.org/2000/svg"
   xmlns="http://www.w3.org/2000/svg"
   xmlns:xlink="http://www.w3.org/1999/xlink"
   xmlns:sodipodi="http://sodipodi.sourceforge.net/DTD/sodipodi-0.dtd"
   xmlns:inkscape="http://www.inkscape.org/namespaces/inkscape"
   width="256"
   height="256"
   id="svg10587"
   version="1.1"
   inkscape:version="0.48.2 r9819"
   inkscape:export-filename="/Users/Alex/Dropbox/Android/TunesRemotePlus/trunk/res/drawable-ldpi/ic_tunes_repeat_pressed.png"
   inkscape:export-xdpi="11.25"
   inkscape:export-ydpi="11.25"
   sodipodi:docname="ic_tunes_repeat_pressed.svg">
  <defs
     id="defs10589">
    <marker
       inkscape:stockid="TriangleOutS"
       orient="auto"
       refY="0.0"
       refX="0.0"
       id="TriangleOutS"
       style="overflow:visible">
      <path
         id="path4632"
         d="M 5.77,0.0 L -2.88,5.0 L -2.88,-5.0 L 5.77,0.0 z "
         style="fill-rule:evenodd;stroke:#000000;stroke-width:1.0pt;marker-start:none"
         transform="scale(0.2)" />
    </marker>
    <marker
       inkscape:stockid="TriangleInS"
       orient="auto"
       refY="0.0"
       refX="0.0"
       id="TriangleInS"
       style="overflow:visible">
      <path
         id="path4623"
         d="M 5.77,0.0 L -2.88,5.0 L -2.88,-5.0 L 5.77,0.0 z "
         style="fill-rule:evenodd;stroke:#000000;stroke-width:1.0pt;marker-start:none"
         transform="scale(-0.2)" />
    </marker>
    <marker
       inkscape:stockid="Arrow1Sstart"
       orient="auto"
       refY="0.0"
       refX="0.0"
       id="Arrow1Sstart"
       style="overflow:visible">
      <path
         id="path4495"
         d="M 0.0,0.0 L 5.0,-5.0 L -12.5,0.0 L 5.0,5.0 L 0.0,0.0 z "
         style="fill-rule:evenodd;stroke:#000000;stroke-width:1.0pt;marker-start:none"
         transform="scale(0.2) translate(6,0)" />
    </marker>
    <marker
       inkscape:stockid="Arrow1Send"
       orient="auto"
       refY="0.0"
       refX="0.0"
       id="Arrow1Send"
       style="overflow:visible;">
      <path
         id="path4498"
         d="M 0.0,0.0 L 5.0,-5.0 L -12.5,0.0 L 5.0,5.0 L 0.0,0.0 z "
         style="fill-rule:evenodd;stroke:#000000;stroke-width:1.0pt;marker-start:none;"
         transform="scale(0.2) rotate(180) translate(6,0)" />
    </marker>
    <marker
       inkscape:stockid="Arrow2Send"
       orient="auto"
       refY="0.0"
       refX="0.0"
       id="Arrow2Send"
       style="overflow:visible;">
      <path
         id="path4516"
         style="font-size:12.0;fill-rule:evenodd;stroke-width:0.62500000;stroke-linejoin:round;"
         d="M 8.7185878,4.0337352 L -2.2072895,0.016013256 L 8.7185884,-4.0017078 C 6.9730900,-1.6296469 6.9831476,1.6157441 8.7185878,4.0337352 z "
         transform="scale(0.3) rotate(180) translate(-2.3,0)" />
    </marker>
    <marker
       inkscape:stockid="Arrow1Lend"
       orient="auto"
       refY="0.0"
       refX="0.0"
       id="Arrow1Lend"
       style="overflow:visible;">
      <path
         id="path4486"
         d="M 0.0,0.0 L 5.0,-5.0 L -12.5,0.0 L 5.0,5.0 L 0.0,0.0 z "
         style="fill-rule:evenodd;stroke:#000000;stroke-width:1.0pt;marker-start:none;"
         transform="scale(0.8) rotate(180) translate(12.5,0)" />
    </marker>
  </defs>
  <sodipodi:namedview
     id="base"
     pagecolor="#ffffff"
     bordercolor="#666666"
     borderopacity="1.0"
     inkscape:pageopacity="0.0"
     inkscape:pageshadow="2"
     inkscape:zoom="2.9570312"
     inkscape:cx="67.804491"
     inkscape:cy="141.52708"
     inkscape:document-units="px"
     inkscape:current-layer="layer1"
     showgrid="false"
     inkscape:window-width="1920"
     inkscape:window-height="945"
     inkscape:window-x="0"
     inkscape:window-y="0"
     inkscape:window-maximized="1" />
  <metadata
     id="metadata10592">
    <rdf:RDF>
      <cc:Work
         rdf:about="">
        <dc:format>image/svg+xml</dc:format>
        <dc:type
           rdf:resource="http://purl.org/dc/dcmitype/StillImage" />
        <dc:title></dc:title>
      </cc:Work>
    </rdf:RDF>
  </metadata>
  <g
     inkscape:label="Layer 1"
     inkscape:groupmode="layer"
     id="layer1"
     transform="translate(0,-796.36218)">
    <path
       sodipodi:type="inkscape:offset"
       inkscape:radius="6.8392067"
       inkscape:original="M 194.3125 869.5625 L 180.3125 893.8125 C 191.79089 900.43955 201.1875 914.70286 201.1875 924.375 C 201.1875 934.24925 195.26576 944.30427 182.96875 953.03125 L 136.09375 953.03125 L 136.09375 939.0625 L 87.65625 967.0625 L 136.09375 995.0625 L 136.09375 981.03125 L 187.3125 981.03125 A 14.0014 14.0014 0 0 0 194.8125 978.875 C 214.75959 966.2265 229.1875 947.01026 229.1875 924.375 C 229.1875 900.7087 213.60573 880.70145 194.3125 869.5625 z "
       xlink:href="#path12802"
       style="font-size:medium;font-style:normal;font-variant:normal;font-weight:normal;font-stretch:normal;text-indent:0;text-align:start;text-decoration:none;line-height:normal;letter-spacing:normal;word-spacing:normal;text-transform:none;direction:ltr;block-progression:tb;writing-mode:lr-tb;text-anchor:start;baseline-shift:baseline;opacity:0.5;color:#000000;fill:#33b5e5;fill-opacity:1;stroke:none;stroke-width:28;marker:none;visibility:visible;display:inline;overflow:visible;enable-background:accumulate;font-family:Sans;-inkscape-font-specification:Sans"
       id="path14647"
       inkscape:href="#path12802"
       d="m 194.46875,862.71875 a 6.8398906,6.8398906 0 0 0 -6.09375,3.4375 l -14,24.25 a 6.8398906,6.8398906 0 0 0 2.53125,9.34375 c 4.59906,2.65527 9.21395,7.21158 12.46875,12.03125 3.2548,4.81967 4.96875,9.97247 4.96875,12.59375 0,6.75461 -3.98969,14.33361 -13.8125,21.8125 l -37.59375,0 0,-7.125 a 6.8398906,6.8398906 0 0 0 -10.28125,-5.90625 l -48.4375,28 a 6.8398906,6.8398906 0 0 0 0,11.8125 l 48.4375,28.00005 a 6.8398906,6.8398906 0 0 0 10.28125,-5.9063 l 0,-7.1875 44.34375,0 c 0.004,10e-6 0.0273,3e-5 0.0312,0 0.37344,-0.002 2.5759,-0.17262 2.90625,-0.21875 0.33388,-0.0466 2.551,-0.5006 2.875,-0.59375 0.324,-0.0932 2.47359,-0.86218 2.78125,-1 0.30766,-0.13782 2.30855,-1.2265 2.59375,-1.40625 21.33319,-13.52743 37.5625,-34.73974 37.5625,-60.28125 0,-26.66823 -17.32909,-48.63522 -38.3125,-60.75 a 6.8398906,6.8398906 0 0 0 -3.25,-0.90625 z" />
    <path
       sodipodi:type="inkscape:offset"
       inkscape:radius="7.7854195"
       inkscape:original="M 120.625 853.6875 L 120.625 867.6875 L 68.6875 867.6875 A 14.0014 14.0014 0 0 0 61.1875 869.84375 C 41.240419 882.49226 26.8125 901.73974 26.8125 924.375 C 26.8125 947.01026 41.240412 966.2265 61.1875 978.875 L 76.1875 955.21875 C 61.680112 946.01957 54.8125 935.07818 54.8125 924.375 C 54.8125 914.50075 60.734233 904.41449 73.03125 895.6875 L 120.625 895.6875 L 120.625 909.6875 L 169.0625 881.6875 L 120.625 853.6875 z "
       xlink:href="#path11117"
       style="font-size:medium;font-style:normal;font-variant:normal;font-weight:normal;font-stretch:normal;text-indent:0;text-align:start;text-decoration:none;line-height:normal;letter-spacing:normal;word-spacing:normal;text-transform:none;direction:ltr;block-progression:tb;writing-mode:lr-tb;text-anchor:start;baseline-shift:baseline;opacity:0.5;color:#000000;fill:#33b5e5;fill-opacity:1;stroke:none;stroke-width:28;marker:none;visibility:visible;display:inline;overflow:visible;enable-background:accumulate;font-family:Sans;-inkscape-font-specification:Sans"
       id="path14645"
       inkscape:href="#path11117"
       d="m 120.8125,845.90625 a 7.786198,7.786198 0 0 0 -7.96875,7.78125 l 0,6.21875 -44.125,0 -0.03125,0 c -0.332822,0.003 -2.775639,0.17869 -3.0625,0.21875 -0.289774,0.0405 -2.718805,0.54416 -3,0.625 -0.281195,0.0808 -2.607982,0.94289 -2.875,1.0625 -0.267018,0.11961 -2.471225,1.2815 -2.71875,1.4375 a 7.786198,7.786198 0 0 0 0,0.0312 c -21.529837,13.65214 -38,35.15016 -38,61.09375 0,25.94359 16.475049,47.41347 38,61.0625 A 7.786198,7.786198 0 0 0 67.75,983.03125 l 15,-23.65625 a 7.786198,7.786198 0 0 0 -2.40625,-10.71875 c -13.087999,-8.29914 -17.75,-16.90837 -17.75,-24.28125 0,-6.34308 3.743987,-13.61593 13.21875,-20.90625 l 37.03125,0 0,6.21875 a 7.786198,7.786198 0 0 0 11.6875,6.75 l 48.4375,-28 a 7.786198,7.786198 0 0 0 0,-13.5 l -48.4375,-28 a 7.786198,7.786198 0 0 0 -3.71875,-1.03125 z" />
    <path
       style="font-size:medium;font-style:normal;font-variant:normal;font-weight:normal;font-stretch:normal;text-indent:0;text-align:start;text-decoration:none;line-height:normal;letter-spacing:normal;word-spacing:normal;text-transform:none;direction:ltr;block-progression:tb;writing-mode:lr-tb;text-anchor:start;baseline-shift:baseline;opacity:0.8;color:#000000;fill:#33b5e5;fill-opacity:1;stroke:none;stroke-width:28;marker:none;visibility:visible;display:inline;overflow:visible;enable-background:accumulate;font-family:Sans;-inkscape-font-specification:Sans"
       d="m 120.625,853.67468 0,14 -51.9375,0 a 14.0014,14.0014 0 0 0 -7.5,2.15625 c -19.947081,12.64851 -34.375,31.89599 -34.375,54.53125 0,22.63526 14.427912,41.8515 34.375,54.5 l 15,-23.65625 c -14.507388,-9.19918 -21.375,-20.14057 -21.375,-30.84375 0,-9.87425 5.921733,-19.96051 18.21875,-28.6875 l 47.59375,0 0,14 48.4375,-28 -48.4375,-28 z"
       id="path11117"
       inkscape:connector-curvature="0" />
    <path
       style="font-size:medium;font-style:normal;font-variant:normal;font-weight:normal;font-stretch:normal;text-indent:0;text-align:start;text-decoration:none;line-height:normal;letter-spacing:normal;word-spacing:normal;text-transform:none;direction:ltr;block-progression:tb;writing-mode:lr-tb;text-anchor:start;baseline-shift:baseline;opacity:0.8;color:#000000;fill:#33b5e5;fill-opacity:1;stroke:none;stroke-width:28;marker:none;visibility:visible;display:inline;overflow:visible;enable-background:accumulate;font-family:Sans;-inkscape-font-specification:Sans"
       d="m 194.3125,869.54968 -14,24.25 c 11.47839,6.62705 20.875,20.89036 20.875,30.5625 0,9.87425 -5.92174,19.92927 -18.21875,28.65625 l -46.875,0 0,-13.96875 -48.4375,28 48.4375,28 0,-14.03125 51.21875,0 a 14.0014,14.0014 0 0 0 7.5,-2.15625 c 19.94709,-12.6485 34.375,-31.86474 34.375,-54.5 0,-23.6663 -15.58177,-43.67355 -34.875,-54.8125 z"
       id="path12802"
       inkscape:connector-curvature="0" />
  </g>
</svg>
