<?xml version="1.0" encoding="UTF-8" standalone="no"?>
<!-- Created with Inkscape (http://www.inkscape.org/) -->

<svg
   xmlns:dc="http://purl.org/dc/elements/1.1/"
   xmlns:cc="http://creativecommons.org/ns#"
   xmlns:rdf="http://www.w3.org/1999/02/22-rdf-syntax-ns#"
   xmlns:svg="http://www.w3.org/2000/svg"
   xmlns="http://www.w3.org/2000/svg"
   xmlns:sodipodi="http://sodipodi.sourceforge.net/DTD/sodipodi-0.dtd"
   xmlns:inkscape="http://www.inkscape.org/namespaces/inkscape"
   width="256"
   height="256"
   id="svg3702"
   version="1.1"
   inkscape:version="0.48.2 r9819"
   sodipodi:docname="ic_tunes_shuffle_2.svg"
   inkscape:export-filename="/Users/Alex/Dropbox/Android/TunesRemotePlus/trunk/res/drawable-xhdpi/ic_tunes_shuffle.png"
   inkscape:export-xdpi="33.75"
   inkscape:export-ydpi="33.75">
  <defs
     id="defs3704">
    <marker
       inkscape:stockid="TriangleOutS"
       orient="auto"
       refY="0.0"
       refX="0.0"
       id="TriangleOutS"
       style="overflow:visible">
      <path
         id="path4632"
         d="M 5.77,0.0 L -2.88,5.0 L -2.88,-5.0 L 5.77,0.0 z "
         style="fill-rule:evenodd;stroke:#000000;stroke-width:1.0pt;marker-start:none"
         transform="scale(0.2)" />
    </marker>
    <marker
       inkscape:stockid="Arrow2Send"
       orient="auto"
       refY="0.0"
       refX="0.0"
       id="Arrow2Send"
       style="overflow:visible;">
      <path
         id="path4516"
         style="font-size:12.0;fill-rule:evenodd;stroke-width:0.62500000;stroke-linejoin:round;"
         d="M 8.7185878,4.0337352 L -2.2072895,0.016013256 L 8.7185884,-4.0017078 C 6.9730900,-1.6296469 6.9831476,1.6157441 8.7185878,4.0337352 z "
         transform="scale(0.3) rotate(180) translate(-2.3,0)" />
    </marker>
    <marker
       inkscape:stockid="Arrow2Mstart"
       orient="auto"
       refY="0.0"
       refX="0.0"
       id="Arrow2Mstart"
       style="overflow:visible">
      <path
         id="path4507"
         style="font-size:12.0;fill-rule:evenodd;stroke-width:0.62500000;stroke-linejoin:round"
         d="M 8.7185878,4.0337352 L -2.2072895,0.016013256 L 8.7185884,-4.0017078 C 6.9730900,-1.6296469 6.9831476,1.6157441 8.7185878,4.0337352 z "
         transform="scale(0.6) translate(0,0)" />
    </marker>
    <marker
       inkscape:stockid="Arrow2Mend"
       orient="auto"
       refY="0.0"
       refX="0.0"
       id="Arrow2Mend"
       style="overflow:visible;">
      <path
         id="path4510"
         style="font-size:12.0;fill-rule:evenodd;stroke-width:0.62500000;stroke-linejoin:round;"
         d="M 8.7185878,4.0337352 L -2.2072895,0.016013256 L 8.7185884,-4.0017078 C 6.9730900,-1.6296469 6.9831476,1.6157441 8.7185878,4.0337352 z "
         transform="scale(0.6) rotate(180) translate(0,0)" />
    </marker>
    <marker
       inkscape:stockid="Arrow1Send"
       orient="auto"
       refY="0.0"
       refX="0.0"
       id="Arrow1Send"
       style="overflow:visible;">
      <path
         id="path4498"
         d="M 0.0,0.0 L 5.0,-5.0 L -12.5,0.0 L 5.0,5.0 L 0.0,0.0 z "
         style="fill-rule:evenodd;stroke:#000000;stroke-width:1.0pt;marker-start:none;"
         transform="scale(0.2) rotate(180) translate(6,0)" />
    </marker>
    <marker
       inkscape:stockid="Arrow1Lend"
       orient="auto"
       refY="0.0"
       refX="0.0"
       id="Arrow1Lend"
       style="overflow:visible;">
      <path
         id="path4486"
         d="M 0.0,0.0 L 5.0,-5.0 L -12.5,0.0 L 5.0,5.0 L 0.0,0.0 z "
         style="fill-rule:evenodd;stroke:#000000;stroke-width:1.0pt;marker-start:none;"
         transform="scale(0.8) rotate(180) translate(12.5,0)" />
    </marker>
  </defs>
  <sodipodi:namedview
     id="base"
     pagecolor="#ffffff"
     bordercolor="#666666"
     borderopacity="1.0"
     inkscape:pageopacity="0.0"
     inkscape:pageshadow="2"
     inkscape:zoom="2.8284271"
     inkscape:cx="60.379189"
     inkscape:cy="117.08046"
     inkscape:document-units="px"
     inkscape:current-layer="layer1"
     showgrid="false"
     inkscape:window-width="1920"
     inkscape:window-height="945"
     inkscape:window-x="0"
     inkscape:window-y="0"
     inkscape:window-maximized="1" />
  <metadata
     id="metadata3707">
    <rdf:RDF>
      <cc:Work
         rdf:about="">
        <dc:format>image/svg+xml</dc:format>
        <dc:type
           rdf:resource="http://purl.org/dc/dcmitype/StillImage" />
        <dc:title></dc:title>
      </cc:Work>
    </rdf:RDF>
  </metadata>
  <g
     inkscape:label="Layer 1"
     inkscape:groupmode="layer"
     id="layer1"
     transform="translate(0,-796.36218)"
     style="display:inline">
    <g
       id="g10476"
       style="fill:#ffffff;fill-opacity:1;opacity:1">
      <path
         inkscape:connector-curvature="0"
         id="path10022"
         d="m 193.1875,852.01843 0,12.71875 -46.25,0 c -7.06358,0 -13.20709,3.26093 -17.6875,7.125 -4.48041,3.86407 -7.87773,8.46032 -11.03125,13.5 -6.30703,10.07937 -11.52051,22.13754 -16.71875,33.84375 -5.198239,11.70621 -10.376816,23.06586 -15.21875,30.53125 -4.841935,7.4654 -8.318179,8.875 -8.21875,8.875 l -59.21875,0 0,25.40625 59.21875,0 c 14.096585,0 22.95756,-10.33329 29.53125,-20.46875 6.57369,-10.13546 11.90217,-22.26965 17.125,-34.03125 5.22284,-11.76159 10.32478,-23.16602 15.03125,-30.6875 2.35324,-3.76074 4.62175,-6.48049 6.09375,-7.75 0.73601,-0.63476 1.10259,-0.85851 1.25,-0.9375 l 46.09375,0 0,12.6875 43.96875,-25.40625 -43.96875,-25.40625 z"
         style="font-size:medium;font-style:normal;font-variant:normal;font-weight:normal;font-stretch:normal;text-indent:0;text-align:start;text-decoration:none;line-height:normal;letter-spacing:normal;word-spacing:normal;text-transform:none;direction:ltr;block-progression:tb;writing-mode:lr-tb;text-anchor:start;baseline-shift:baseline;opacity:0.80000000000000004;color:#000000;fill:#ffffff;fill-opacity:1;stroke:none;stroke-width:28;marker:none;visibility:visible;display:inline;overflow:visible;enable-background:accumulate;font-family:Sans;-inkscape-font-specification:Sans" />
      <path
         id="path10026"
         transform="translate(0,796.36218)"
         d="M 18.84375 68.375 L 18.84375 93.78125 L 78.0625 93.78125 C 77.96307 93.78125 81.439315 95.19085 86.28125 102.65625 C 88.74949 106.46183 91.30504 111.27342 93.90625 116.625 C 98.037601 107.29148 102.30085 97.596847 107.4375 88.59375 C 100.87862 78.531063 92.055268 68.375 78.0625 68.375 L 18.84375 68.375 z M 132.28125 139.46875 C 128.14749 148.78491 123.81511 158.49183 118.53125 167.5 C 121.5966 172.34549 124.91837 176.79551 129.25 180.53125 C 133.73041 184.39532 139.87392 187.65625 146.9375 187.65625 L 193.1875 187.65625 L 193.1875 200.34375 L 237.15625 174.9375 L 193.1875 149.53125 L 193.1875 162.25 L 147.09375 162.25 C 146.94634 162.171 146.57976 161.91601 145.84375 161.28125 C 144.37175 160.01174 142.10324 157.29199 139.75 153.53125 C 137.35068 149.69687 134.84975 144.85427 132.28125 139.46875 z "
         style="font-size:medium;font-style:normal;font-variant:normal;font-weight:normal;font-stretch:normal;text-indent:0;text-align:start;text-decoration:none;line-height:normal;letter-spacing:normal;word-spacing:normal;text-transform:none;direction:ltr;block-progression:tb;writing-mode:lr-tb;text-anchor:start;baseline-shift:baseline;opacity:0.80000000000000004;color:#000000;fill:#ffffff;fill-opacity:1;stroke:none;stroke-width:28;marker:none;visibility:visible;display:inline;overflow:visible;enable-background:accumulate;font-family:Sans;-inkscape-font-specification:Sans" />
    </g>
  </g>
</svg>
