<?xml version="1.0" encoding="UTF-8" standalone="no"?>
<!-- Created with Inkscape (http://www.inkscape.org/) -->

<svg
   xmlns:dc="http://purl.org/dc/elements/1.1/"
   xmlns:cc="http://creativecommons.org/ns#"
   xmlns:rdf="http://www.w3.org/1999/02/22-rdf-syntax-ns#"
   xmlns:svg="http://www.w3.org/2000/svg"
   xmlns="http://www.w3.org/2000/svg"
   xmlns:xlink="http://www.w3.org/1999/xlink"
   xmlns:sodipodi="http://sodipodi.sourceforge.net/DTD/sodipodi-0.dtd"
   xmlns:inkscape="http://www.inkscape.org/namespaces/inkscape"
   width="256"
   height="256"
   id="svg3702"
   version="1.1"
   inkscape:version="0.48.2 r9819"
   sodipodi:docname="ic_tunes_shuffle.svg"
   inkscape:export-filename="/Users/Alex/Dropbox/Android/TunesRemotePlus/trunk/res/drawable-xhdpi/ic_tunes_shuffle.png"
   inkscape:export-xdpi="33.75"
   inkscape:export-ydpi="33.75">
  <defs
     id="defs3704">
    <marker
       inkscape:stockid="TriangleOutS"
       orient="auto"
       refY="0.0"
       refX="0.0"
       id="TriangleOutS"
       style="overflow:visible">
      <path
         id="path4632"
         d="M 5.77,0.0 L -2.88,5.0 L -2.88,-5.0 L 5.77,0.0 z "
         style="fill-rule:evenodd;stroke:#000000;stroke-width:1.0pt;marker-start:none"
         transform="scale(0.2)" />
    </marker>
    <marker
       inkscape:stockid="Arrow2Send"
       orient="auto"
       refY="0.0"
       refX="0.0"
       id="Arrow2Send"
       style="overflow:visible;">
      <path
         id="path4516"
         style="font-size:12.0;fill-rule:evenodd;stroke-width:0.62500000;stroke-linejoin:round;"
         d="M 8.7185878,4.0337352 L -2.2072895,0.016013256 L 8.7185884,-4.0017078 C 6.9730900,-1.6296469 6.9831476,1.6157441 8.7185878,4.0337352 z "
         transform="scale(0.3) rotate(180) translate(-2.3,0)" />
    </marker>
    <marker
       inkscape:stockid="Arrow2Mstart"
       orient="auto"
       refY="0.0"
       refX="0.0"
       id="Arrow2Mstart"
       style="overflow:visible">
      <path
         id="path4507"
         style="font-size:12.0;fill-rule:evenodd;stroke-width:0.62500000;stroke-linejoin:round"
         d="M 8.7185878,4.0337352 L -2.2072895,0.016013256 L 8.7185884,-4.0017078 C 6.9730900,-1.6296469 6.9831476,1.6157441 8.7185878,4.0337352 z "
         transform="scale(0.6) translate(0,0)" />
    </marker>
    <marker
       inkscape:stockid="Arrow2Mend"
       orient="auto"
       refY="0.0"
       refX="0.0"
       id="Arrow2Mend"
       style="overflow:visible;">
      <path
         id="path4510"
         style="font-size:12.0;fill-rule:evenodd;stroke-width:0.62500000;stroke-linejoin:round;"
         d="M 8.7185878,4.0337352 L -2.2072895,0.016013256 L 8.7185884,-4.0017078 C 6.9730900,-1.6296469 6.9831476,1.6157441 8.7185878,4.0337352 z "
         transform="scale(0.6) rotate(180) translate(0,0)" />
    </marker>
    <marker
       inkscape:stockid="Arrow1Send"
       orient="auto"
       refY="0.0"
       refX="0.0"
       id="Arrow1Send"
       style="overflow:visible;">
      <path
         id="path4498"
         d="M 0.0,0.0 L 5.0,-5.0 L -12.5,0.0 L 5.0,5.0 L 0.0,0.0 z "
         style="fill-rule:evenodd;stroke:#000000;stroke-width:1.0pt;marker-start:none;"
         transform="scale(0.2) rotate(180) translate(6,0)" />
    </marker>
    <marker
       inkscape:stockid="Arrow1Lend"
       orient="auto"
       refY="0.0"
       refX="0.0"
       id="Arrow1Lend"
       style="overflow:visible;">
      <path
         id="path4486"
         d="M 0.0,0.0 L 5.0,-5.0 L -12.5,0.0 L 5.0,5.0 L 0.0,0.0 z "
         style="fill-rule:evenodd;stroke:#000000;stroke-width:1.0pt;marker-start:none;"
         transform="scale(0.8) rotate(180) translate(12.5,0)" />
    </marker>
  </defs>
  <sodipodi:namedview
     id="base"
     pagecolor="#ffffff"
     bordercolor="#666666"
     borderopacity="1.0"
     inkscape:pageopacity="0.0"
     inkscape:pageshadow="2"
     inkscape:zoom="2.9570312"
     inkscape:cx="68.142667"
     inkscape:cy="128"
     inkscape:document-units="px"
     inkscape:current-layer="layer1"
     showgrid="false"
     inkscape:window-width="1920"
     inkscape:window-height="945"
     inkscape:window-x="0"
     inkscape:window-y="0"
     inkscape:window-maximized="1" />
  <metadata
     id="metadata3707">
    <rdf:RDF>
      <cc:Work
         rdf:about="">
        <dc:format>image/svg+xml</dc:format>
        <dc:type
           rdf:resource="http://purl.org/dc/dcmitype/StillImage" />
        <dc:title></dc:title>
      </cc:Work>
    </rdf:RDF>
  </metadata>
  <g
     inkscape:label="Layer 1"
     inkscape:groupmode="layer"
     id="layer1"
     transform="translate(0,-796.36218)">
    <g
       id="g9739"
       style="fill:#ffffff;fill-opacity:1;opacity:0.80000000000000004">
      <g
         id="g7155"
         style="opacity:1;fill:#ffffff;fill-opacity:1;stroke:#000000;stroke-opacity:1">
        <path
           inkscape:connector-curvature="0"
           id="path6690"
           d="m 36.25,881.5625 0,25.46875 65.9375,0 c 3.18497,0 13.12208,3.57447 23.875,10.625 10.75292,7.05053 22.77201,16.87353 33.8125,26.78125 22.08098,19.81544 40.21875,39.78125 40.21875,39.78125 L 218.9375,967.0625 c 0,0 -18.82327,-20.70764 -42.0625,-41.5625 -11.61961,-10.42743 -24.33649,-20.95542 -36.84375,-29.15625 -12.50726,-8.20083 -24.32178,-14.78125 -37.84375,-14.78125 l -65.9375,0 z"
           style="font-size:medium;font-style:normal;font-variant:normal;font-weight:normal;font-stretch:normal;text-indent:0;text-align:start;text-decoration:none;line-height:normal;letter-spacing:normal;word-spacing:normal;text-transform:none;direction:ltr;block-progression:tb;writing-mode:lr-tb;text-anchor:start;baseline-shift:baseline;color:#000000;fill:#ffffff;fill-opacity:1;stroke:none;stroke-width:25.47800254999999936;stroke-opacity:1;marker:none;visibility:visible;display:inline;overflow:visible;enable-background:accumulate;font-family:Sans;-inkscape-font-specification:Sans" />
        <path
           inkscape:connector-curvature="0"
           id="path7161"
           d="m 229.29981,997.39619 -48.50025,-15.48003 37.70728,-34.27354 10.79297,49.75357 z"
           style="fill:#ffffff;fill-opacity:1;fill-rule:evenodd;stroke:none;stroke-width:5.09560050999999969pt;stroke-opacity:1;marker-start:none" />
      </g>
      <g
         transform="translate(5e-5,0)"
         id="g8902"
         style="opacity:1;fill:#ffffff;fill-opacity:1;stroke:#000000;stroke-opacity:1">
        <path
           d="m 200.09375,864.53125 c 0,0 -18.13777,19.93456 -40.21875,39.75 -11.04049,9.90772 -23.05958,19.73072 -33.8125,26.78125 -10.75292,7.05053 -20.69003,10.625 -23.875,10.625 l -65.9375,0 0,25.46875 65.9375,0 c 13.52197,0 25.33649,-6.58042 37.84375,-14.78125 12.50726,-8.20083 25.22414,-18.69757 36.84375,-29.125 23.23923,-20.85486 42.0625,-41.59375 42.0625,-41.59375 l -18.84375,-17.125 z"
           inkscape:href="#path3710"
           id="path9719"
           style="font-size:medium;font-style:normal;font-variant:normal;font-weight:normal;font-stretch:normal;text-indent:0;text-align:start;text-decoration:none;line-height:normal;letter-spacing:normal;word-spacing:normal;text-transform:none;direction:ltr;block-progression:tb;writing-mode:lr-tb;text-anchor:start;baseline-shift:baseline;color:#000000;fill:#ffffff;fill-opacity:1;stroke:none;stroke-width:25.47800254999999936;marker:none;visibility:visible;display:inline;overflow:visible;enable-background:accumulate;font-family:Sans;-inkscape-font-specification:Sans"
           xlink:href="#path3710"
           inkscape:original="M 200.09375 864.53125 C 200.09375 864.53125 181.95598 884.46581 159.875 904.28125 C 148.83451 914.18897 136.81542 924.01197 126.0625 931.0625 C 115.30958 938.11303 105.37247 941.6875 102.1875 941.6875 L 36.25 941.6875 L 36.25 967.15625 L 102.1875 967.15625 C 115.70947 967.15625 127.52399 960.57583 140.03125 952.375 C 152.53851 944.17417 165.25539 933.67743 176.875 923.25 C 200.11423 902.39514 218.9375 881.65625 218.9375 881.65625 L 200.09375 864.53125 z "
           inkscape:radius="0"
           sodipodi:type="inkscape:offset" />
        <path
           inkscape:connector-curvature="0"
           id="path3710"
           d="m 200.09375,864.53125 c 0,0 -18.13777,19.93456 -40.21875,39.75 -11.04049,9.90772 -23.05958,19.73072 -33.8125,26.78125 -10.75292,7.05053 -20.69003,10.625 -23.875,10.625 l -65.9375,0 0,25.46875 65.9375,0 c 13.52197,0 25.33649,-6.58042 37.84375,-14.78125 12.50726,-8.20083 25.22414,-18.69757 36.84375,-29.125 23.23923,-20.85486 42.0625,-41.59375 42.0625,-41.59375 l -18.84375,-17.125 z"
           style="font-size:medium;font-style:normal;font-variant:normal;font-weight:normal;font-stretch:normal;text-indent:0;text-align:start;text-decoration:none;line-height:normal;letter-spacing:normal;word-spacing:normal;text-transform:none;direction:ltr;block-progression:tb;writing-mode:lr-tb;text-anchor:start;baseline-shift:baseline;color:#000000;fill:#ffffff;fill-opacity:1;stroke:none;stroke-width:25.47800254999999936;marker:none;visibility:visible;display:inline;overflow:visible;enable-background:accumulate;font-family:Sans;-inkscape-font-specification:Sans" />
        <path
           inkscape:connector-curvature="0"
           id="path8908"
           d="m 229.29981,851.32817 -10.79297,49.75357 -37.70728,-34.27354 48.50025,-15.48003 z"
           style="fill:#ffffff;fill-opacity:1;fill-rule:evenodd;stroke:none;stroke-width:5.09560050999999969pt;stroke-opacity:1;marker-start:none" />
      </g>
    </g>
  </g>
</svg>
